<svg xmlns="http://www.w3.org/2000/svg" viewBox="0 0 500 500">
  <path fill="#fff" fill-rule="nonzero" d="M335.42 490c-28.06 0-44.62-7.42-57.94-13.36-8.28-3.72-14.82-6.64-22.06-6.64-7.24 0-13.76 2.92-22.06 6.64-13.3 5.94-29.88 13.36-57.94 13.36-52.72 0-120-117.76-120-210 0-97.06 72.66-150 110-150 18.98 0 36.72 5.96 52.38 11.22 13.44 4.52 26.16 8.78 37.62 8.78 11.46 0 24.18-4.26 37.62-8.78 15.68-5.26 33.42-11.22 52.38-11.22 23.22 0 59.58 20.18 84.16 58.78 1.66 2.6 2.04 5.84.98 8.76s-3.4 5.18-6.36 6.12c-29.18 9.34-48.78 36-48.78 66.32 0 34.6 26 64.26 60.5 69 2.9.4 5.46 2.04 7.06 4.48 1.58 2.46 2.02 5.46 1.18 8.26C424.42 418.24 377.24 490 335.42 490zm-80-40c11.5 0 20.58 4.06 30.22 8.36 12.18 5.44 26 11.64 49.78 11.64 23.68 0 64.22-47.9 86.26-113.54-38.48-10.56-66.26-45.86-66.26-86.46 0-34.6 19.76-65.46 50.34-80.42-20.94-27.2-47.02-39.58-60.34-39.58-15.7 0-31.1 5.18-46 10.18-15.04 5.04-29.24 9.82-44 9.82-14.76 0-28.96-4.78-44-9.82-14.88-5-30.28-10.18-46-10.18-26.92 0-90 44.22-90 130 0 89.34 65.24 190 100 190 23.78 0 37.6-6.18 49.78-11.64 9.64-4.3 18.74-8.36 30.22-8.36zm-10-320c-5.52 0-10-4.48-10-10 0-60.66 49.34-110 110-110 5.52 0 10 4.48 10 10 0 60.66-49.34 110-110 110zm89.38-99.38c-41.16 4.86-73.9 37.6-78.74 78.76 41.14-4.86 73.9-37.6 78.74-78.76z"/>
</svg>
