<?xml version="1.0" encoding="utf-8"?>
<!-- Generated by IcoMoon.io -->
<!DOCTYPE svg PUBLIC "-//W3C//DTD SVG 1.1//EN" "http://www.w3.org/Graphics/SVG/1.1/DTD/svg11.dtd">
<svg version="1.1" xmlns="http://www.w3.org/2000/svg" xmlns:xlink="http://www.w3.org/1999/xlink" width="32" height="32" viewBox="0 0 32 32">
<path d="M19.035 14.683c-0.158-0.307-0.35-0.601-0.607-0.858-0.254-0.253-0.547-0.448-0.857-0.609-0.482-0.25-1.013-0.397-1.571-0.397-0.917 0-1.779 0.357-2.427 1.005-1.081 1.081-1.274 2.705-0.607 3.997 0.158 0.307 0.35 0.601 0.607 0.858 0.255 0.255 0.553 0.444 0.867 0.599 1.287 0.633 2.946 0.443 3.988-0.599 1.081-1.081 1.274-2.705 0.607-3.997zM17.465 17.718c-0.404 0.405-0.935 0.607-1.466 0.607s-1.061-0.202-1.465-0.607c-0.81-0.809-0.81-2.122 0-2.931 0.404-0.405 0.935-0.607 1.465-0.607s1.061 0.202 1.466 0.607c0.81 0.809 0.81 2.122 0 2.931zM27.314 4.972c-3.022-3.022-7.040-4.686-11.314-4.686s-8.292 1.664-11.314 4.686-4.686 7.040-4.686 11.314c0 4.274 1.664 8.292 4.686 11.314s7.040 4.686 11.314 4.686c4.274 0 8.292-1.664 11.314-4.686s4.686-7.040 4.686-11.314c0-4.274-1.664-8.292-4.686-11.314zM12.912 20.807c0.475 0.323 1.001 0.548 1.55 0.707l-2.878 7.457c-1.58-0.547-3.049-1.385-4.341-2.495l5.669-5.669zM5.777 25.010c-1.11-1.292-1.948-2.761-2.495-4.341l7.46-2.879c0.157 0.542 0.381 1.067 0.707 1.548l-5.671 5.672zM13.667 20.051c-0.295-0.182-0.576-0.387-0.827-0.638-0.253-0.254-0.459-0.534-0.639-0.827-1.056-1.722-0.851-4.004 0.639-5.493 0.844-0.844 1.966-1.309 3.16-1.309 0.839 0 1.637 0.241 2.333 0.671 0.295 0.182 0.576 0.387 0.827 0.638 0.254 0.253 0.458 0.534 0.639 0.827 1.056 1.722 0.851 4.004-0.639 5.493-0.844 0.844-1.966 1.309-3.16 1.309-0.839 0-1.636-0.241-2.333-0.671zM17.564 10.999l2.877-7.456c1.571 0.548 3.031 1.382 4.316 2.487l-5.669 5.669c-0.468-0.318-0.985-0.539-1.524-0.699zM20.552 13.166l5.672-5.672c1.105 1.285 1.939 2.746 2.487 4.316l-7.459 2.879c-0.157-0.533-0.378-1.049-0.699-1.523z"></path>
</svg>
