<svg xmlns="http://www.w3.org/2000/svg" viewBox="0 0 500 500">
  <path fill="#fff" d="M226.28 239.82c0 6.598 2.93 13.058 8.79 19.38 5.86 6.323 12.962 12.552 21.305 18.69 8.344 6.137 16.637 12.875 24.878 20.213 8.24 7.338 15.297 16.867 21.168 28.587 5.87 11.72 8.8 24.734 8.79 39.04 0 16.494-4.39 32.345-13.19 47.555-13.2 22.363-32.53 38.81-58 49.34-25.47 10.53-52.77 15.8-81.91 15.81-24.19 0-46.78-3.803-67.76-11.408-20.99-7.604-36.7-20.202-47.15-37.793C36.39 418.242 33 406.24 33 393.226c0-14.84 4.08-28.588 12.24-41.242 8.158-12.655 19.016-23.195 32.574-31.62 24.005-15.026 61.024-24.19 111.056-27.496-5.86-7.697-10.212-14.476-13.054-20.336-2.843-5.86-4.265-12.552-4.265-20.074 0-6.6 1.93-14.39 5.78-23.37-8.42.73-14.65 1.094-18.69 1.094-27.12 0-49.98-8.842-68.58-26.525-18.59-17.683-27.9-40.088-27.91-67.213 0-15.025 3.3-29.594 9.9-43.705 6.6-14.12 15.67-26.12 27.22-36.01 14.11-12.1 30.84-21.08 50.17-26.94C168.77 23.93 188.7 21 209.23 21h114.9l-37.934 24.18H250.19c13.556 11.544 23.82 23.73 30.79 36.56 6.967 12.83 10.45 27.49 10.45 43.982 0 13.198-2.25 25.062-6.743 35.592-4.495 10.53-9.904 19.052-16.226 25.57-6.32 6.516-12.69 12.474-19.1 17.872-6.41 5.4-11.87 11.033-16.36 16.903-4.49 5.87-6.74 11.92-6.74 18.15h.03zm-40.135-26.388c6.97 0 14.117-1.513 21.445-4.54 7.328-3.03 13.378-7.016 18.15-11.963 9.71-10.45 14.564-25.02 14.564-43.71 0-10.63-1.56-22.09-4.68-34.36-3.12-12.28-7.564-24.15-13.332-35.61-5.768-11.47-13.51-20.95-23.23-28.45s-20.44-11.26-32.16-11.27c-7.697 0-15.256 1.78-22.676 5.35-7.42 3.57-13.424 8.38-18.012 14.44-8.61 10.81-12.916 25.48-12.916 43.98 0 8.42.92 17.36 2.756 26.8 1.837 9.44 4.726 18.88 8.667 28.31 3.95 9.43 8.71 17.91 14.31 25.43s12.47 13.66 20.62 18.41 16.99 7.13 26.53 7.14l-.01.013zm.555 239.987c10.632 0 20.85-1.2 30.65-3.58 9.8-2.38 18.874-5.95 27.218-10.72 8.344-4.76 15.035-11.46 20.074-20.08 5.04-8.62 7.56-18.61 7.56-29.96 0-4.58-.642-9.07-1.925-13.47-1.283-4.41-2.612-8.26-3.987-11.55-1.376-3.3-3.85-7.1-7.42-11.41-3.572-4.31-6.276-7.52-8.114-9.62-1.837-2.11-5.367-5.27-10.59-9.49-5.225-4.217-8.57-6.876-10.038-7.974-1.468-1.098-5.27-3.848-11.408-8.25-6.137-4.404-9.483-6.785-10.037-7.144-2.935-.37-7.333-.555-13.193-.555-9.71 0-19.33.64-28.865 1.92-9.534 1.284-19.387 3.57-29.558 6.867-10.17 3.29-19.058 7.503-26.663 12.635-7.605 5.13-13.88 11.954-18.828 20.473-4.946 8.52-7.42 18.186-7.42 29.003 0 12.83 3.207 24.143 9.622 33.944 6.414 9.8 14.8 17.404 25.155 22.813 10.355 5.41 21.26 9.44 32.713 12.1 11.454 2.656 23.138 3.985 35.054 3.985v.02zM409.367 212.6h58.56v29.697h-58.56v60.208h-28.865v-60.208h-58.284V212.6h58.284v-59.653h28.865V212.6z"/>
</svg>
