<svg xmlns="http://www.w3.org/2000/svg" viewBox="0 0 500 500">
  <g fill="#fff" fill-rule="nonzero">
    <path d="M71.193 490.145c-7.418 0-14.815-1.985-21.513-5.956-12.96-7.68-20.705-21.275-20.705-36.35V51.795c0-15.076 7.745-28.67 20.705-36.35 12.982-7.68 28.625-7.94 41.825-.697l361.593 198.02c13.746 7.527 21.95 21.382 21.95 37.047 0 15.666-8.204 29.542-21.95 37.047L91.505 484.887c-6.414 3.49-13.374 5.258-20.312 5.258zm0-458.792c-3.6 0-7.178.96-10.408 2.88-6.283 3.71-10.014 10.276-10.014 17.563v396.022c0 7.287 3.733 13.855 10.016 17.586 6.284 3.687 13.833 3.818 20.226.35L442.605 267.73c6.654-3.643 10.625-10.34 10.625-17.912 0-7.57-3.972-14.27-10.626-17.913L81.01 33.885c-3.075-1.703-6.457-2.532-9.817-2.532z"/>
    <path d="M356.225 326.182c-2.727 0-5.454-1.004-7.57-3.055L54.11 39.49c-4.343-4.188-4.474-11.083-.285-15.425 4.19-4.34 11.128-4.45 15.426-.305l294.547 283.636c4.342 4.19 4.473 11.084.306 15.426-2.16 2.247-5.018 3.36-7.877 3.36z"/>
    <path d="M61.68 478.91c-2.858 0-5.716-1.114-7.855-3.34-4.167-4.34-4.058-11.235.306-15.425L348.678 176.51c4.32-4.146 11.26-4.06 15.426.305 4.167 4.34 4.058 11.236-.306 15.425L69.25 475.876c-2.115 2.03-4.843 3.033-7.57 3.033z"/>
  </g>
</svg>
