<svg xmlns="http://www.w3.org/2000/svg" viewBox="0 0 500 500">
  <g fill="#fff" fill-rule="nonzero">
    <path d="M353.41 25H146.59C79.544 25 25 79.545 25 146.59v206.82C25 420.456 79.545 475 146.59 475h206.82C420.456 475 475 420.455 475 353.41V146.59C475 79.544 420.455 25 353.41 25zm85.235 328.41c0 47-38.235 85.235-85.234 85.235H146.59c-47 0-85.235-38.235-85.235-85.234V146.59c0-47 38.235-85.235 85.234-85.235h206.82c47 0 85.23 38.235 85.23 85.234v206.82z"/>
    <path d="M351.582 237.146c-3.227-21.575-13.153-41.13-28.706-56.55-15.553-15.422-35.273-25.266-57.03-28.464-9.906-1.457-19.95-1.457-29.855 0-26.88 3.954-50.61 18.053-66.8 39.702-16.19 21.648-22.91 48.254-18.93 74.915 3.99 26.66 18.21 50.18 40.04 66.24 17.73 13.03 38.74 19.88 60.41 19.88 5.02 0 10.08-.37 15.14-1.11 26.89-3.96 50.62-18.06 66.81-39.7 16.2-21.65 22.92-48.26 18.93-74.92zM260.467 315.8c-17.2 2.533-34.364-1.734-48.33-12.006-13.967-10.272-23.063-25.322-25.613-42.377-2.55-17.055 1.748-34.075 12.107-47.924 10.36-13.85 25.54-22.87 42.74-25.398 3.17-.466 6.36-.7 9.55-.7 3.19 0 6.38.234 9.55.7 28.57 4.2 50.61 26.056 54.85 54.385 5.27 35.207-19.34 68.1-54.84 73.32zm117.23-189.563c-3.414-3.385-8.14-5.325-12.963-5.325-4.824 0-9.55 1.94-12.963 5.325-3.41 3.385-5.37 8.063-5.37 12.854 0 4.79 1.96 9.47 5.37 12.86 3.42 3.39 8.14 5.33 12.97 5.33s9.55-1.94 12.97-5.32c3.415-3.386 5.37-8.07 5.37-12.854 0-4.782-1.955-9.47-5.37-12.852z"/>
  </g>
</svg>
