<svg xmlns="http://www.w3.org/2000/svg" viewBox="0 0 500 500">
  <path fill="#fff" d="M327.893 126.743c-.873.09-1.818.327-2.363.6-1.126.545-3.29.836-6.088.836-2.453 0-4.234.27-5.088.76-1.127.63-2.09.87-4.343 1.05-2.1.16-3.3.51-3.3.94 0 .25-1 .65-2 .76-1.5.2-2.87.62-3.12 1-.4.54-1.03.78-2.31.83-1.96.07-2.5.25-3.09.94-.41.51-.74.67-1.74.91-1.16.25-1.92.72-2.1 1.29-.04.13-.6.34-1.25.49-1.6.36-1.98.56-2.18 1.09-.09.25-.36.49-.63.54-.25.05-.67.14-.94.2-.27.05-.84.45-1.24.89-.42.45-.96.83-1.27.91-.29.05-.73.14-.94.2-.23.03-.52.32-.69.61-.16.32-.58.67-1.07.87-.43.2-1.2.76-1.71 1.27s-1.11.94-1.34.98c-.22.03-.6.34-.84.69-.31.45-.62.67-1.18.82-.62.14-.84.32-1.13.85-.2.38-.6.78-.87.89-.29.12-.72.52-.96.92-.23.38-.52.69-.63.69-.16 0-1.31 1.03-2.65 2.42-.18.18-.76.74-1.27 1.27-.53.52-.96 1.09-.96 1.25 0 .54-.22.89-.73 1.14-.31.16-.6.52-.73.89-.11.34-.47.83-.82 1.09-.34.27-.87.94-1.18 1.52-.31.58-.82 1.2-1.14 1.4-.4.25-.65.62-.85 1.22-.18.54-.43.94-.76 1.12-.29.18-.58.6-.76 1.14-.2.57-.6 1.16-1.2 1.73-.85.82-.9.93-.9 1.78 0 .82-.06.93-.55 1.18-.33.18-.72.64-1.02 1.24-.27.51-.8 1.24-1.18 1.6-.6.54-.71.76-.71 1.4 0 1.05-.27 1.67-1 2.31-.53.45-.67.72-.83 1.71-.2 1.1-.34 1.34-1.22 2.05-.4.32-.49.56-.67 2.03-.09.71-.25 1-.83 1.54-.66.61-.73.76-.93 2.16-.19 1.32-.28 1.54-.73 1.87-.73.53-1.05 1.25-1.05 2.38 0 1.34-.25 2.07-.89 2.62-.64.52-.89 1.31-.98 3.01-.07 1.25-.4 1.98-1.02 2.31-.51.27-.74 1.16-.74 2.81-.02 1.91-.22 2.94-.69 3.43-.62.65-.92 1.81-1.12 4.36-.2 2.27-.23 2.45-.83 3.36-.8 1.21-.98 2.2-.98 5.47 0 3.23-.2 4.52-.89 5.85-.94 1.82-.98 2.69-.98 23.7 0 21.79.04 22.69 1.09 24.91l.66 1.36.07 3.94c.05 2.17.16 4.22.27 4.55.09.34.43.89.74 1.25.65.74.83 1.58.83 4.01.02 1.85.13 2.18 1.06 3.14.62.65.62.67.77 2.9.14 2.36.413 3.25 1.103 3.62.42.21.73 1.21.73 2.36.02 1.33.35 2.42.93 3.02.6.64.89 1.45.89 2.58 0 .93.2 1.35 1 2.22.51.54.62.85.82 2.21.215 1.47.29 1.63.906 2.2.53.47.71.8.8 1.42.27 1.71.33 1.83.947 2.2.66.38.98 1.16.98 2.36 0 .56.11.76.73 1.25.53.43.8.85 1.07 1.67.26.73.6 1.29 1.02 1.69.43.38.63.74.63 1.07 0 .36.27.76 1 1.45.96.93 1 1 1 1.91 0 .82.07 1 .56 1.42.31.27.83.91 1.16 1.43.34.5.87 1.12 1.16 1.34.49.36.56.52.56 1.22 0 .72.09.91.78 1.56.44.42.97 1.04 1.18 1.38.22.36.71.95 1.13 1.31.4.36.73.84.73 1.04 0 .56.38 1.27.76 1.4.18.05.55.5.78 1 .28.52.68 1 1 1.16.29.14.64.45.75.69.18.36 1.2 1.49 2.4 2.63 1 .98 2.96 2.94 3.51 3.52 1.09 1.18 2.42 2.33 2.67 2.33.17 0 .53.33.86.72.4.51.77.75 1.22.84.37.07.84.34 1.11.65.26.29.91.78 1.44 1.07.55.31 1.11.76 1.277 1 .345.52 1.144.98 1.71.98.24 0 .67.29 1.054.71.45.49.96.8 1.72 1.03.71.22 1.2.51 1.44.83.26.33.71.6 1.37.784.676.2 1.24.54 1.82 1.102.747.71.947.8 1.67.8.96.01 1.38.21 2.14 1.1.57.64.6.65 2.24.76.91.05 1.8.215 1.98.34.18.13.62.47.98.766.6.47.89.55 2.84.75 1.91.2 2.25.29 2.84.72.818.64 2.14.966 4.49 1.11 1.58.11 1.874.18 2.71.73 1.2.78 2.22.98 4.93 1 1.21 0 2.83.07 3.58.12 1.18.11 1.47.22 2.14.74l.76.64 3.41.146c4.16.2 13.044.02 15.03-.31.8-.13 1.903-.42 2.45-.64 1.09-.44 3.82-.71 7-.73 2.252 0 4-.4 4.67-1.04.42-.4.78-.49 2.91-.78 2.69-.36 3.09-.47 3.91-1.16.47-.4.78-.49 2.16-.58 2.212-.145 3.103-.4 3.69-1.11.43-.526.58-.58 1.92-.69 1.47-.126 2.162-.4 2.62-1.05.31-.42 1.29-.856 1.95-.856.343 0 .71-.23 1.18-.72.8-.837 1.344-1.09 2.36-1.09.62 0 .84-.13 1.51-.8.58-.6 1.054-.89 1.82-1.11.8-.24 1.09-.42 1.29-.84.17-.31.474-.563.783-.636 1.02-.22 1.147-.29 1.62-.91.256-.37.82-.8 1.22-1.02.417-.2 1.09-.73 1.49-1.16.45-.47.926-.8 1.16-.8.6 0 1.017-.29 1.27-.91.165-.384.455-.657.93-.857.38-.145.82-.454.963-.69.16-.236.6-.6 1-.836.4-.22.85-.65 1.033-.98.17-.33.55-.73.84-.91.29-.16.656-.51.82-.78.18-.27 1.07-1.23 1.98-2.13.945-.92 1.73-1.85 1.8-2.12.072-.27.4-.71.73-.944.34-.273.65-.71.72-1.02.08-.31.46-.853.86-1.234.4-.36.93-1.01 1.18-1.43.24-.42.73-.93 1.074-1.13.38-.24.745-.66.926-1.06.147-.38.51-.96.8-1.29.29-.323.53-.8.53-1.05 0-.67.415-1.36 1.25-2.035.49-.4.8-.82.93-1.31.145-.51.345-.8.73-1 .38-.2.58-.49.73-1.06.43-1.64.58-1.93 1.18-2.31.67-.42.82-.69.82-1.47 0-.38.25-.82.99-1.62.875-.94 1-1.18 1-1.82 0-.58.13-.87.64-1.43.75-.81 1.18-1.78 1.18-2.58 0-.42.16-.71.65-1.12.88-.78 1.17-1.38 1.17-2.45 0-.8.07-.97.816-1.71.71-.73.82-.95.82-1.58 0-.98.38-1.87.963-2.26.58-.38.86-1.29.86-2.91 0-1.42.17-1.82 1.06-2.6.65-.55.65-.56.76-2.42.11-1.82.13-1.87.71-2.42.816-.77 1.11-1.55 1.125-3 .02-2.04.22-2.91.84-3.51.68-.67.91-1.76 1.04-4.8.07-2.05.11-2.2.64-2.93.31-.433.63-1 .74-1.29.11-.27.27-2.22.342-4.32.125-3.255.22-3.96.525-4.65.67-1.49.98-2.98 1.146-5.45.22-3.58.2-32.86-.01-34.71-.2-1.676-.62-3.2-1-3.64-.36-.436-.45-1.29-.63-5.815-.18-4.58-.36-5.65-1.18-6.87-.45-.69-.51-.96-.64-3.16-.16-2.62-.328-3.253-1.02-3.98-.58-.62-.78-1.49-.8-3.4 0-1.653-.18-2.18-1.07-3-.31-.29-.56-.69-.56-.91-.037-1.88-.237-3.46-.56-4.27-.22-.51-.46-.95-.53-.95-.4 0-.69-.64-.82-1.763-.16-1.56-.34-2-1.09-2.78-.546-.56-.637-.78-.71-1.76-.108-1.42-.417-2.53-.76-2.82-.8-.65-.928-.87-1.128-2.05-.2-1.12-.31-1.34-.962-1.91-.673-.6-.73-.71-.836-1.9-.11-1.29-.13-1.29-1.34-2.33-.18-.16-.36-.58-.42-.923l-.2-1.29c-.09-.47-.27-.745-.72-1.036-.47-.33-.67-.64-.91-1.51-.22-.748-.51-1.257-.91-1.638-.4-.36-.65-.814-.74-1.25-.09-.526-.36-.944-1.013-1.56-.76-.73-.91-.98-1.03-1.82-.15-.89-.49-1.44-1.07-1.67-.09-.04-.46-.53-.82-1.11-.39-.58-.8-1.09-.95-1.165-.4-.14-.82-1.01-.82-1.67 0-.4-.16-.67-.725-1.105-.4-.31-.73-.69-.73-.85 0-.146-.4-.69-.91-1.2-1.76-1.835-7.19-7.306-7.63-7.705-.25-.22-1.01-.96-1.72-1.67-.69-.71-1.55-1.42-1.85-1.6-.33-.18-.6-.38-.6-.46 0-.06-.22-.37-.47-.68-.33-.38-.64-.56-.99-.56-.38 0-.658-.16-1-.62-.27-.34-.78-.72-1.13-.85-.36-.11-1.12-.65-1.71-1.18-.79-.72-1.21-.98-1.59-.98-.4 0-.67-.16-1.017-.62-.31-.41-.8-.72-1.54-1-.766-.29-1.22-.6-1.62-1.09-.53-.65-.64-.71-1.66-.78-1.04-.07-1.15-.12-1.89-.92-.675-.74-.875-.85-1.49-.85-1.13 0-2.02-.324-2.42-.89-.29-.4-.65-.58-1.54-.82-.65-.16-1.42-.29-1.73-.29-.38 0-.67-.16-.96-.523-.65-.81-1.18-.98-3.38-1.12-1.95-.13-2.09-.164-3-.78-1.05-.73-1.85-.93-4.22-1.11-1.31-.09-1.89-.24-2.91-.73-1.6-.743-2.87-.96-6.63-1.07-3.03-.09-3.74-.21-5.91-1.03-1.07-.4-1.27-.42-8.9-.45-4.29-.02-8.47.04-9.25.13zm125.193-116.56c1.526-.055 2.544.418 3.053 1.417.29.6.3 9.704.3 184.11 0 100.914.05 183.727.11 184.036.14.764-.2 1.563-.8 1.872-.39.182-2.42.255-9.13.29-4.75.037-8.98.02-9.42-.035-1.49-.22-1.38 1.253-1.42-18.973-.04-9.85-.13-18.773-.2-19.827-.11-1.272-.09-2.98.05-5.088.12-1.745.25-4.852.29-6.906l.05-3.73-.64-.06c-.97-.08-1.29.27-1.35 1.38-.06.91-.11 1.02-1.02 1.85-.89.82-.95.92-.86 1.54.13.78-.17 1.67-.58 1.81-.66.2-1.37 1.16-1.35 1.81.01.51-.09.71-.51 1.01-.29.2-.71.71-.91 1.13-.22.42-.79 1.18-1.29 1.69-.71.72-.93 1.09-1 1.69-.06.42-.24.85-.4.98-.17.13-.51.51-.75.85-.24.35-.95 1.18-1.58 1.87-.64.67-1.15 1.32-1.15 1.45 0 .11-.29.54-.64.93-.35.4-.64.87-.64 1.03 0 .18-.27.52-.62.8-.33.25-.75.76-.91 1.14-.17.38-.57.83-.86 1.03-.29.2-.69.6-.89.91-.53.85-11.18 11.39-11.85 11.73-.33.16-.75.56-.93.87-.18.31-.44.56-.58.56-.55 0-1.15.42-1.42 1-.24.47-.44.64-.97.74-.64.11-1.73.95-3.67 2.75-.62.6-.97.78-1.42.78-.48 0-.84.22-1.69.98-.62.53-1.37 1.07-1.69 1.2-.33.13-.84.45-1.15.73-.29.27-.84.54-1.2.6-.84.12-1.86.78-2.26 1.43-.2.34-.49.52-.96.6-1.35.21-1.53.29-2.29 1-.66.6-.91.72-1.55.72-.83 0-2.29.65-2.78 1.25-.18.2-.54.41-.82.47-1.11.23-1.97.54-2.49.94-.31.22-.75.53-.97.69-.24.18-.86.31-1.73.35-1.41.05-2.25.36-3.09 1.14-.4.38-.8.51-2.45.71-2.71.35-2.78.36-3.89 1.07-.74.49-1.16.64-1.8.64-.45 0-1.74.12-2.89.25-1.83.23-2.18.32-2.9.85-.98.69-2.14.87-5.65.89-4.91.02-7.9.38-9.99 1.22-.75.29-1.55.33-9 .33h-8.18l-1.45-.49c-2.08-.71-3.04-.84-8.45-1.07-4.77-.2-4.84-.22-5.73-.71-1.24-.69-1.96-.86-4.73-1.09-3.06-.24-3.24-.29-3.87-.91-.64-.6-1.86-.91-3.64-.91-1.84-.02-2.71-.26-3.36-.88-.62-.58-2.27-1.12-3.46-1.12-.51 0-.8-.17-1.4-.73-.73-.71-.89-.76-2.8-1-.69-.09-1-.25-1.46-.75-.6-.65-1.96-1.16-3.16-1.16-.44 0-.8-.18-1.38-.73-.8-.73-1.82-1.27-2.44-1.27-.18 0-.53-.22-.78-.47-.42-.47-2.4-1.53-2.84-1.53-.13 0-.37-.2-.53-.45-.18-.29-.64-.55-1.29-.73-.89-.25-1.87-.98-1.87-1.38 0-.27-1.24-.89-1.77-.89-.4 0-.6-.13-.8-.49-.14-.26-.54-.6-.89-.75-.34-.15-1.14-.71-1.74-1.29-1.74-1.6-2.89-2.53-3.36-2.75-.23-.11-.58-.44-.74-.73-.16-.29-.58-.69-.91-.89-.66-.4-.68-.4-1.33-1.23-.26-.31-.66-.6-.88-.64-.235-.03-.544-.31-.76-.73-.237-.45-.58-.78-1.036-.96-.43-.16-.76-.47-.96-.87-.16-.34-.49-.73-.74-.87-.254-.13-.635-.56-.82-.94-.2-.38-.634-.86-.96-1.06-.35-.2-.71-.58-.84-.87-.11-.3-.416-.62-.67-.77-.254-.13-.654-.64-.89-1.11-.236-.45-.673-.98-.945-1.16-.29-.17-.78-.73-1.11-1.28-.31-.52-.82-1.14-1.11-1.34-.38-.27-.62-.65-.74-1.2-.15-.52-.39-.92-.71-1.16-.29-.2-.55-.6-.62-.94-.07-.36-.44-.87-1-1.42-.49-.46-1.09-1.24-1.348-1.75-.257-.49-.657-1-.91-1.11-.328-.16-.47-.38-.54-.98-.07-.6-.29-.96-1.02-1.69-.49-.51-1.04-1.27-1.2-1.71-.18-.42-.54-.94-.838-1.14-.35-.236-.53-.53-.53-.82 0-.635-.62-1.76-1.36-2.51-.46-.455-.64-.8-.64-1.2 0-.76-.42-1.53-1.18-2.11-.57-.42-.64-.58-.64-1.29 0-.98-.53-2.07-1.28-2.6-.47-.325-.55-.51-.55-1.2 0-1.015-.36-1.72-1.18-2.36-.54-.42-.63-.58-.63-1.24 0-1.09-.45-2.41-1.07-3.12-.6-.675-.93-1.62-.93-2.638 0-.58-.12-.78-.85-1.38l-.85-.73-.04-1.34c-.074-1.78-.29-2.45-1.11-3.29-.655-.67-.674-.71-.78-2.49-.13-1.71-.18-1.91-.87-3.05-.66-1.11-.75-1.4-.86-2.78-.16-2.31-.417-3.29-1.017-3.93-.47-.49-.56-.75-.71-2.27-.38-3.57-.58-4.78-.92-5.73-.2-.54-.43-.98-.52-.98-.26 0-.37-.85-.46-3.45-.11-3.11-.47-5.26-1.09-6.64-.44-.96-.51-1.436-.66-4-.45-8.23-.49-26.84-.07-44.16.13-5.67.24-6.687.89-8.195.51-1.2.69-2.82.98-8.27.15-2.546.16-2.71.66-3.34.69-.89 1.02-2.22 1.02-4.18.02-2.06.2-2.91.82-3.55.65-.674 1-1.965 1-3.71.015-1.98.233-2.944.78-3.526.76-.834.91-1.31 1.053-3.58l.124-2.18.653-.544c.78-.67.95-1.09 1.11-2.853.13-1.27.18-1.46.82-2.13.73-.78 1.13-1.69 1.07-2.42-.09-.926.034-1.27.67-1.85.53-.47.69-.82.91-1.76.125-.64.234-1.458.25-1.8 0-.51.15-.78.64-1.257.74-.69 1.36-1.8 1.36-2.44 0-.23.22-.612.47-.87.635-.58.98-1.42.98-2.38 0-.91.145-1.18.745-1.49.47-.24 1.42-1.8 1.44-2.38 0-.18.24-.6.51-.91.27-.29.71-1.033.943-1.633.232-.6.69-1.38 1-1.75.322-.364.63-.945.71-1.31.07-.42.47-1.034 1.12-1.76.545-.62 1.053-1.364 1.11-1.67.05-.29.325-.71.62-.91.29-.22.633-.78.87-1.42.235-.62.562-1.16.835-1.34.69-.46 1.17-1.02 1.38-1.71.13-.36.44-.84.73-1.07.27-.24.55-.67.62-.98.11-.49.84-1.31 4.91-5.55.51-.53 1.36-1.456 1.91-2.055.54-.61 1.16-1.25 1.34-1.43.18-.16 1.22-1.16 2.29-2.22 4.44-4.36 5.76-5.59 6.27-5.85.31-.16.82-.61 1.15-1.03.33-.42.73-.748.87-.748.147 0 .58-.32.98-.72.456-.48.87-.73 1.16-.73.29 0 .93-.4 1.76-1.09.71-.6 1.42-1.09 1.55-1.09.144 0 .56-.27.926-.6.38-.33 1.02-.69 1.42-.82.69-.2 1.91-1.16 1.91-1.51 0-.2.72-.42 1.218-.36.55.05 1.08-.26 1.86-1.07.66-.69.86-.77 2.26-1 .51-.09.91-.33 1.4-.86.638-.69.747-.75 1.76-.77 1.13-.03 1.69-.31 2.58-1.27.257-.25.64-.47.87-.47.22 0 1-.09 1.71-.22 1.09-.2 1.4-.326 1.98-.89.73-.71.93-.76 3.36-1 1.18-.11 1.31-.16 1.93-.835l.657-.73 2.16-.12c2.255-.13 2.67-.25 3.67-1.13.326-.29.817-.52 1.09-.52 1.36-.02 4.43-.24 5.38-.368.74-.13 1.216-.31 1.54-.62.77-.723 1.42-.85 4.66-.94 6.485-.147 9.05-.438 10.465-1.18l.8-.44h17.81l1.634.6c1.8.673 3.47.84 9.85 1.02 2.36.054 3.23.145 3.63.363 2.11 1.16 2.4 1.237 4.94 1.4 3.29.218 3.51.255 4.11.89.56.6 1.45.837 3.8 1.02 1.27.09 1.49.16 2.09.725.8.71 1.43.98 2.34.98 1.036 0 2.07.34 2.67.89.73.67 1.89 1.11 3 1.11.836 0 .945.05 1.8.92.85.88.98.93 1.58.84.87-.15 1.47.11 2.25.98.49.51.82.71 1.2.71.98 0 1.8.36 2.34 1.02.46.54.73.69 1.53.82.86.13 1.1.27 1.84 1.07.8.87 1.13 1.02 2.07.91.19-.02.68.29 1.1.69.4.38 1.04.89 1.38 1.13s.98.74 1.4 1.12c.44.385.97.69 1.2.69.24 0 .66.26.97.57.29.31.78.69 1.07.83.31.144.87.62 1.29 1.035.4.4 1.36 1.28 2.143 1.93 1.46 1.22 4.11 3.82 4.11 4.02 0 .05.33.34.73.61.4.27.89.76 1.09 1.09.2.31.63.73.98.91.346.18.727.52.85.76.13.22.49.6.838.82.33.237.66.583.71.783.076.2.51.73.98 1.18 1.677 1.58 4.69 5.02 5.057 5.745.22.42.58.87.84 1.05.32.2.47.46.47.8 0 .55.42 1.26.94 1.64.71.51 1.04 1.02 1.24 1.87.17.677.35.97.75 1.2.29.186.58.476.64.69.36 1.295 1.07 2.86 1.34 3 .18.09.43.49.56.857.34 1.11.91 2.12 1.36 2.51.29.23.49.69.61 1.32.2 1.09.67 2.18 1.38 3.13.39.526.46.8.4 1.65-.03.82.04 1.13.29 1.42.44.49 1.47.53 1.73.056.09-.18.09-1.62-.01-3.67-.11-1.852-.182-4.22-.164-5.27.02-1.052.06-34.8.11-75.02.06-58.912.13-73.2.31-73.58.13-.252.55-.73.93-1.04l.69-.54 4.994-.035c2.76-.04 5.07-.11 5.14-.18.05-.05.96-.05 2.013.04 1.06.07 2.49.13 3.18.11zM151.15 9.296c.217.18.47.654.562 1.054.11.436.182 13.738.182 32.73 0 31.256 0 32.02-.346 32.438l-.345.436-38.98.054-39 .037-.51-.436-.507-.44V42.75c0-29.912.018-32.456.31-32.874.162-.254.562-.545.907-.654.418-.145 12.303-.2 38.963-.218 36.29-.018 38.4 0 38.763.29zm-.056 101.895c.273.19.473.59.6 1.2.254 1.19.272 262.33.018 281.23-.182 13.27-.327 15.67-.98 17.23-.474 1.07-.637 2.86-.837 8.67-.182 5.42-.29 6.22-.964 7.13-.5.67-.83 2.6-.85 4.87-.02 2.67-.25 4.31-.69 4.78-.67.75-.92 1.55-1.11 3.44-.21 2.22-.27 2.42-.92 3.15-.58.64-1.09 2.24-1.09 3.46 0 .77-.09.95-.71 1.55-.56.57-.74.89-.85 1.58-.14 1.06-.43 1.68-1.14 2.37-.36.36-.58.86-.72 1.55-.18.8-.42 1.24-1.12 2.06-.69.78-.89 1.16-.89 1.64 0 .45-.18.8-.82 1.47-2.1 2.29-2.99 3.36-2.99 3.62 0 .15-.27.58-.62.95-.32.38-.65.86-.72 1.06-.05.2-.41.53-.78.73-.4.2-.85.66-1.05 1.04-.2.36-.56.78-.8.91s-.62.53-.85.89c-.22.37-.66.77-.97.88-.31.13-.71.51-.91.86-.23.4-.51.62-.76.62-.23 0-.71.33-1.14.78-.42.42-.98.9-1.25 1.04-.29.15-.76.53-1.04.86-.29.33-.96.87-1.51 1.22s-1.11.82-1.27 1.08c-.2.31-.51.47-1.05.54-.6.07-.91.26-1.42.82-.45.51-1 .85-1.74 1.13-.6.22-1.29.58-1.54.8-.25.24-.91.64-1.47.87-.56.26-1.31.76-1.67 1.13-.49.49-.82.66-1.25.66-.74 0-2.07.6-2.71 1.2-.38.37-.8.51-1.81.66-2.2.29-2.87.51-3.45 1.15-.51.53-.69.6-1.94.71-1.32.11-2.94.67-2.94 1.04 0 .42-1.22.73-3.58.89-2.96.22-3.67.363-4.56.96-.91.62-.98.635-4.4.85-2.99.2-5.79.71-6.81 1.238-.4.2-1.45.31-3.91.42-5.18.22-52.3.2-53.08-.02-.73-.2-1.45-.91-1.78-1.764-.25-.62-.2-1.82.15-3.14.16-.62.16-1.18 0-2.36-.16-1.31-.16-1.78.07-2.93.25-1.2.29-4.29.27-24.713 0-12.83 0-23.92.02-24.61 0-.71.04-2.84.06-4.73.05-3.91.16-4.256 1.38-4.76.58-.26.82-.26 1.76-.06 2.25.49 2.82.546 6.54.64 3.49.11 3.91.15 4.82.55 2.16.95 9.45 1 11.27.07.47-.234 2.22-.51 4-.62 3.07-.18 3.25-.23 4.03-1.014.64-.634.8-.706 1.66-.706 1.34 0 2.32-.386 2.82-1.11.49-.71.64-.8 1.51-.966.38-.08.87-.35 1.18-.68.29-.31.85-.76 1.27-1 .4-.233 1.04-.74 1.38-1.124.37-.36.89-.82 1.2-.98.33-.163.69-.58.86-.962.15-.38.73-1.16 1.27-1.74.62-.67 1.05-1.34 1.18-1.8.11-.4.35-.8.55-.91.54-.29 1.12-2.11 1-3.09-.18-1.31.18-4.4.63-5.394.22-.47.53-1.65.69-2.6.29-1.83.31-5.396.46-220.07.04-57.23.07-64.84.31-65.208.38-.6 1.42-1.18 2.27-1.31.4-.05 17.65-.07 38.33-.05 32.82.035 37.65.09 38.018.31z"/>
</svg>
