<svg xmlns="http://www.w3.org/2000/svg" viewBox="0 0 500 500">
  <path fill="#fff" d="M134.34 168.672V442.23H43.244V168.67h91.094zm5.795-84.47c.185 13.436-4.463 24.66-13.94 33.678-9.477 9.018-21.945 13.526-37.403 13.526h-.552c-15.09 0-27.237-4.508-36.438-13.526C42.602 108.862 38 97.638 38 84.203c0-13.618 4.74-24.89 14.216-33.815C61.693 41.463 74.07 37 89.344 37c15.274 0 27.512 4.463 36.713 13.388 9.2 8.925 13.894 20.197 14.078 33.815zM462 285.44v156.79h-90.818v-146.3c0-19.324-3.726-34.46-11.18-45.41-7.453-10.95-19.093-16.424-34.92-16.424-11.592 0-21.3 3.174-29.12 9.523-7.822 6.35-13.665 14.21-17.53 23.6-2.024 5.52-3.036 12.97-3.036 22.36v152.65h-90.818c.368-73.43.552-132.96.552-178.6 0-45.64-.09-72.88-.276-81.71l-.276-13.25h90.818v39.75h-.552c3.68-5.89 7.453-11.04 11.317-15.46 3.87-4.418 9.07-9.2 15.6-14.356 6.538-5.155 14.54-9.157 24.02-12.01 9.477-2.85 20.013-4.28 31.607-4.28 31.47 0 56.774 10.445 75.913 31.333 19.13 20.892 28.7 51.485 28.7 91.792z"/>
</svg>
