<svg xmlns="http://www.w3.org/2000/svg" viewBox="0 0 500 500">
  <path fill="#fff" fill-rule="nonzero" d="M352.138 291.836c0-16.493-10.514-30.512-24.945-36.08-1.03 6.392-2.68 12.783-4.742 18.968-2.06 6.598-8.24 10.72-14.84 10.72-1.65 0-3.3-.205-4.95-.618-8.45-2.886-12.78-11.75-10.1-19.997 3.1-9.49 4.74-19.38 4.74-29.49 0-51.54-42.06-93.6-93.8-93.6-37.11 0-70.51 22.06-85.35 55.043 14.43 3.71 27.83 11.133 38.76 21.853 6.185 6.185 6.185 16.287 0 22.472-6.185 6.184-16.29 6.184-22.472 0-9.897-9.897-23.09-15.463-37.11-15.463-29.07 0-52.78 23.504-52.78 52.57 0 29.07 23.71 52.575 52.78 52.575H312.97c21.647 0 39.17-17.524 39.17-38.965zm31.543 0c0 38.965-31.74 70.508-70.71 70.508H97.32c-46.59 0-84.32-37.728-84.32-84.114 0-42.264 31.337-77.106 71.95-83.085 17.112-50.303 64.736-84.94 118.545-84.94 64.94 0 118.544 49.686 124.73 112.98 31.54 6.802 55.456 35.046 55.456 68.65zm51.55 0c0 23.503-6.8 46.18-20 65.766-3.09 4.536-8.04 6.803-13.19 6.803-3.09 0-6.184-.824-8.864-2.68-7.215-4.74-9.07-14.637-4.122-21.853 9.69-14.225 14.638-30.718 14.638-48.036 0-17.112-4.95-33.81-14.637-48.036-4.95-7.216-3.094-16.905 4.122-21.853s17.11-2.887 22.06 4.33c13.193 19.378 19.996 42.056 19.996 65.56zm52.78 0c0 32.78-9.482 64.323-27.624 91.33-3.092 4.536-8.04 7.01-13.194 7.01-2.886 0-5.98-.825-8.66-2.68-7.214-4.948-9.276-14.638-4.33-21.854 14.434-21.853 22.268-47.417 22.268-73.806 0-26.39-7.833-51.953-22.265-73.6-4.947-7.216-2.885-17.112 4.33-21.854 7.217-4.948 16.906-3.092 21.854 4.33 18.14 26.8 27.625 58.344 27.625 91.124z"/>
</svg>
