<?xml version="1.0" encoding="utf-8"?>
<!-- Generated by IcoMoon.io -->
<!DOCTYPE svg PUBLIC "-//W3C//DTD SVG 1.1//EN" "http://www.w3.org/Graphics/SVG/1.1/DTD/svg11.dtd">
<svg version="1.1" xmlns="http://www.w3.org/2000/svg" xmlns:xlink="http://www.w3.org/1999/xlink" width="32" height="32" viewBox="0 0 32 32">
<path d="M16 2.667c-7.36 0-13.333 5.973-13.333 13.333s5.973 13.333 13.333 13.333 13.333-5.973 13.333-13.333-5.973-13.333-13.333-13.333zM14.667 26.573c-5.267-0.653-9.333-5.133-9.333-10.573 0-0.827 0.107-1.613 0.28-2.387l6.387 6.387v1.333c0 1.467 1.2 2.667 2.667 2.667v2.573zM23.867 23.187c-0.347-1.080-1.333-1.853-2.533-1.853h-1.333v-4c0-0.733-0.6-1.333-1.333-1.333h-8v-2.667h2.667c0.733 0 1.333-0.6 1.333-1.333v-2.667h2.667c1.467 0 2.667-1.2 2.667-2.667v-0.547c3.907 1.587 6.667 5.413 6.667 9.88 0 2.773-1.067 5.293-2.8 7.187z"></path>
</svg>
