<svg xmlns="http://www.w3.org/2000/svg" viewBox="0 0 500 500">
  <path fill="#fff" d="M250.5 21C124.365 21 22 123.365 22 249.5S124.365 478 250.5 478 479 375.635 479 249.5 376.635 21 250.5 21zm-22.845 409.7C137.39 419.507 67.707 342.73 67.707 249.5c0-14.173 1.834-27.643 4.798-40.908l109.46 109.46v22.845c0 25.14 20.566 45.706 45.707 45.706V430.7h-.017zm157.67-58.03c-5.948-18.51-22.846-31.756-43.41-31.756H319.07v-68.552c0-12.562-10.285-22.845-22.847-22.845H159.12V203.81h45.707c12.563 0 22.845-10.282 22.845-22.845V135.26h45.707c25.14 0 45.704-20.567 45.704-45.708v-9.375c66.958 27.198 114.26 92.768 114.26 169.323 0 47.523-18.288 90.71-47.988 123.17h-.034z"/>
</svg>
