<svg xmlns="http://www.w3.org/2000/svg" viewBox="0 0 500 500">
  <path fill="#fff" fill-rule="nonzero" d="M425.138 236.516c-8.337 0-16.293 1.622-23.537 4.543-4.84-52.716-50.834-94.06-106.935-94.06-13.73 0-27.05 2.593-38.865 6.99-4.59 1.704-5.8 3.464-5.8 6.873V346.49c0 3.58 2.877 6.562 6.51 6.913.156.016 167.57.097 168.654.097 33.604 0 60.837-26.19 60.837-58.49 0-32.302-27.255-58.494-60.86-58.494zM198.375 353.5h14.75l7.375-103.35L213.125 147h-14.75L191 250.15l7.375 103.35zm-44.25 0h-14.75L132 278.482 139.375 206h14.75l7.375 73.75-7.375 73.75zm-73.75 0h14.75l7.375-59-7.375-59h-14.75L73 294.5l7.375 59zm-59-29.5h14.75l7.375-29.5-7.375-29.5h-14.75L14 294.5l7.375 29.5z"/>
</svg>
