<svg xmlns="http://www.w3.org/2000/svg" viewBox="0 0 500 500">
  <path fill="#fff" d="M171.744 351.557l3.406-51.258-3.406-111.23c-.143-1.42-.675-2.63-1.596-3.62-.92-1-2.092-1.49-3.513-1.49-1.28 0-2.414.49-3.407 1.49-.992.99-1.488 2.2-1.488 3.62l-2.978 111.23 2.978 51.25c.143 1.42.675 2.59 1.596 3.51.92.92 2.02 1.38 3.3 1.38 3.12 0 4.822-1.63 5.108-4.9zm62.953-6.17l2.334-44.873-2.54-124.62c0-2.27-.92-3.974-2.76-5.11-1.13-.706-2.27-1.06-3.4-1.06s-2.27.354-3.4 1.06c-1.84 1.136-2.76 2.84-2.76 5.11l-.21 1.274-2.13 123.13c0 .144.78 16.873 2.33 50.187v.215c0 1.42.43 2.628 1.28 3.62 1.28 1.556 2.91 2.335 4.9 2.335 1.56 0 2.98-.64 4.25-1.918 1.28-.992 1.92-2.41 1.92-4.252l.23-5.097zM12.455 273.075l4.252 27.225-4.252 26.795c-.286 1.28-.925 1.918-1.917 1.918-.993 0-1.632-.64-1.918-1.918L5 300.3l3.62-27.226c.286-1.278.925-1.917 1.918-1.917.992 0 1.63.64 1.917 1.917zm18.293-16.792l5.526 44.017-5.526 43.17c-.286 1.28-.996 1.918-2.132 1.918-1.278 0-1.917-.71-1.917-2.132L21.8 300.3l4.897-44.02c0-1.278.637-1.917 1.915-1.917 1.136 0 1.846.64 2.132 1.917zm19.567-8.087l5.312 52.104-5.312 50.4c0 1.556-.778 2.334-2.334 2.334-1.42 0-2.27-.778-2.54-2.334l-4.46-50.4 4.47-52.105c.29-1.7 1.14-2.548 2.55-2.548 1.56 0 2.34.85 2.34 2.548zm19.984-1.488l4.89 53.592-4.9 51.888c-.29 1.842-1.28 2.763-2.98 2.763-1.85 0-2.77-.92-2.77-2.76l-4.46-51.89 4.46-53.59c0-1.84.92-2.76 2.76-2.76 1.7 0 2.69.92 2.97 2.77zm19.99 3.835l4.46 49.77-4.47 52.317c-.29 2.27-1.42 3.405-3.41 3.405-.85 0-1.6-.317-2.24-.953-.65-.635-.96-1.448-.96-2.44l-4.25-52.32 4.25-49.768c0-.85.32-1.596.95-2.24.63-.643 1.38-.96 2.24-.952 1.98 0 3.12 1.064 3.4 3.192v-.012zm19.98-31.06l4.46 80.817-4.47 52.317c0 .993-.36 1.878-1.06 2.656-.71.778-1.56 1.167-2.55 1.167-2.27 0-3.55-1.274-3.82-3.823L99.02 300.3l3.823-80.818c.286-2.55 1.56-3.823 3.823-3.823.992 0 1.842.38 2.55 1.16.705.78 1.06 1.66 1.06 2.65zm19.99-18.28l4.03 99.526-4.04 51.89c0 1.13-.39 2.09-1.17 2.87-.78.77-1.74 1.16-2.87 1.16-2.55 0-3.97-1.35-4.25-4.04l-3.41-51.89 3.4-99.53c.28-2.69 1.7-4.04 4.25-4.04 1.13 0 2.09.39 2.87 1.16.77.78 1.16 1.73 1.16 2.87zm20.84-8.516l3.83 107.613-3.83 51.46c-.29 2.977-1.85 4.466-4.68 4.466-2.69 0-4.18-1.49-4.47-4.466l-3.41-51.46 3.4-107.614c0-1.28.46-2.378 1.38-3.3.92-.92 1.95-1.38 3.08-1.38 1.28 0 2.34.46 3.19 1.38.85.922 1.342 2.02 1.49 3.3zm41.25-.846l3.19 108.46-3.2 50.83c0 1.42-.53 2.67-1.6 3.73-1.07 1.07-2.31 1.6-3.73 1.6s-2.63-.49-3.62-1.49c-1-.99-1.56-2.26-1.71-3.82l-2.98-50.83 2.972-108.45c0-1.55.534-2.83 1.6-3.82 1.064-.99 2.306-1.49 3.73-1.49 1.42 0 2.66.5 3.73 1.49 1.06.99 1.59 2.27 1.59 3.82v-.01zm21.05 4.04l2.97 104.64-2.98 50.19c0 1.56-.57 2.91-1.7 4.04-1.14 1.14-2.48 1.71-4.04 1.71-1.556 0-2.9-.56-4.037-1.7-1.14-1.13-1.78-2.48-1.92-4.03l-2.55-50.18 2.55-104.63c.14-1.7.78-3.12 1.914-4.25 1.132-1.14 2.48-1.7 4.034-1.7 1.56 0 2.87.566 3.93 1.7 1.063 1.137 1.67 2.554 1.81 4.25zm45.09 104.64l-2.98 49.13c0 1.85-.64 3.41-1.92 4.68-1.28 1.28-2.84 1.92-4.68 1.92-1.84 0-3.41-.64-4.68-1.92-1.28-1.27-1.99-2.83-2.14-4.68l-1.27-24.24-1.27-24.88 2.54-135.25v-.64c.286-2.13 1.136-3.83 2.55-5.11 1.28-.99 2.694-1.49 4.25-1.49 1.136 0 2.2.36 3.192 1.06 1.984 1.14 3.12 2.98 3.405 5.53l2.99 135.91zm236.5-4.04c0 16.59-5.89 30.73-17.65 42.43-11.77 11.7-25.94 17.55-42.53 17.54H267.66c-1.843-.28-3.403-1.06-4.68-2.33-1.28-1.27-1.92-2.83-1.92-4.68V158.25c0-3.266 1.986-5.604 5.956-7.017 12.05-4.82 24.88-7.23 38.49-7.23 27.64 0 51.6 9.32 71.88 27.964 20.27 18.65 31.62 41.58 34.02 68.8 7.51-3.12 15.303-4.68 23.39-4.68 16.582 0 30.76 5.89 42.53 17.65 11.76 11.77 17.65 26.02 17.65 42.75h.01z"/>
</svg>
