<svg xmlns="http://www.w3.org/2000/svg" viewBox="0 0 500 500">
  <path fill="#fff" d="M482.563 105.806c-13.167 19.258-29.085 35.667-47.754 49.227.19 2.75.29 6.877.29 12.38 0 25.548-3.74 51.045-11.2 76.494-7.47 25.448-18.82 49.866-34.05 73.25-15.23 23.386-33.36 44.07-54.39 62.05-21.03 17.982-46.38 32.328-76.05 43.038-29.68 10.71-61.41 16.065-95.218 16.065-53.256 0-101.99-14.247-146.207-42.742 6.877.786 14.54 1.18 22.99 1.18 44.217 0 83.62-13.56 118.205-40.68-20.634-.393-39.107-6.73-55.417-19.013-16.308-12.283-27.51-27.955-33.6-47.015 6.484.98 12.477 1.47 17.98 1.47 8.45 0 16.802-1.08 25.056-3.243-22.01-4.52-40.238-15.476-54.68-32.868-14.44-17.4-21.66-37.59-21.66-60.58v-1.18c13.36 7.463 27.71 11.492 43.033 12.082-12.97-8.647-23.286-19.947-30.95-33.9-7.664-13.95-11.496-29.084-11.496-45.394 0-17.29 4.32-33.31 12.97-48.05 23.78 29.28 52.71 52.72 86.81 70.31 34.09 17.59 70.6 27.364 109.51 29.33-1.58-7.467-2.36-14.74-2.36-21.81 0-26.335 9.28-48.787 27.85-67.358C290.81 70.285 313.26 61 339.6 61c27.51 0 50.7 10.022 69.566 30.067 21.42-4.127 41.563-11.79 60.428-22.992-7.27 22.6-21.223 40.09-41.857 52.47 18.276-1.966 36.552-6.878 54.827-14.74z"/>
</svg>
