<svg xmlns="http://www.w3.org/2000/svg" viewBox="0 0 500 500">
  <path fill="#fff" d="M478.13 138.917c3.568 9.762-7.627 32.64-35.752 70.07-46.368 61.467-51.25 55.67-13.118 91.21 36.606 34.013 44.233 50.485 45.453 52.62 0 0 15.252 26.693-16.93 26.845l-61.01.96c-13.117 2.624-30.505-9.303-30.505-9.303-22.88-15.71-44.385-56.44-61.01-51.22 0 0-17.235 5.49-16.778 42.17.23 7.87-3.584 12.154-3.584 12.154s-4.27 4.5-12.63 5.216h-27.454c-60.308 3.814-113.478-51.705-113.478-51.705S73.436 268.03 22.416 148.145c-3.355-7.84.305-11.652.305-11.652s3.57-4.576 13.58-4.576l65.28-.457c6.225.914 10.527 4.27 10.527 4.27s3.814 2.592 5.72 7.626c10.677 26.69 24.404 50.99 24.404 50.99 23.794 49.112 40.008 57.5 49.296 52.467 0 0 12.156-7.32 9.533-66.653-.96-21.476-6.91-31.268-6.91-31.268-5.49-7.397-15.71-9.548-20.286-10.265-3.553-.457 2.396-9.06 10.266-12.873 11.712-5.69 32.44-5.948 56.98-5.69 19.34.23 24.817 1.42 32.184 3.052 22.65 5.49 15.023 26.447 15.023 76.98 0 16.212-3.05 38.862 8.588 46.244 5.034 3.356 17.388.458 47.893-51.553 0 0 14.337-24.77 25.562-53.612 1.89-5.232 5.95-7.367 5.95-7.367s3.81-2.136 9.06-1.434l68.634-.458c20.744-2.638 24.1 6.894 24.1 6.894l.03.107z"/>
</svg>
