<svg xmlns="http://www.w3.org/2000/svg" viewBox="0 0 31 28">
  <path fill="#fff" d="M29.953 8.125c.234.64-.5 2.14-2.344 4.594-3.04 4.03-3.36 3.65-.86 5.98 2.4 2.23 2.9 3.31 2.98 3.45 0 0 1 1.75-1.11 1.76l-4 .063c-.86.172-2-.61-2-.61-1.5-1.03-2.91-3.7-4-3.358 0 0-1.13.36-1.1 2.765.015.516-.235.797-.235.797s-.28.295-.828.342h-1.8c-3.954.25-7.44-3.39-7.44-3.39S3.42 16.59.075 8.73c-.22-.514.02-.764.02-.764s.234-.3.89-.3l4.28-.03c.408.06.69.28.69.28s.25.17.375.5c.7 1.75 1.6 3.343 1.6 3.343 1.56 3.22 2.623 3.77 3.232 3.44 0 0 .797-.48.625-4.37-.063-1.408-.453-2.05-.453-2.05-.36-.485-1.03-.626-1.33-.673-.233-.03.157-.594.673-.844.768-.373 2.127-.39 3.736-.373 1.268.015 1.627.093 2.11.2 1.485.36.985 1.734.985 5.047 0 1.063-.2 2.548.563 3.032.33.22 1.14.03 3.14-3.38 0 0 .94-1.624 1.676-3.515.124-.343.39-.483.39-.483s.25-.14.594-.094l4.5-.03c1.36-.173 1.58.452 1.58.452z"/>
</svg>
