<svg xmlns="http://www.w3.org/2000/svg" viewBox="0 0 500 500">
  <path fill="#fff" d="M301.015 337.972V391.4c0 11.304-3.29 16.957-9.868 16.957-3.885 0-7.685-1.857-11.4-5.572v-76.212c3.715-3.715 7.515-5.573 11.4-5.573 6.58 0 9.868 5.653 9.868 16.958v.014zm85.585.256v11.64h-22.786v-11.64c0-11.476 3.8-17.214 11.4-17.214 7.6 0 11.4 5.738 11.4 17.214h-.014zm-244.588-55.2h27.096v-23.806h-78.99v23.807h26.585V427.1h25.323V283.03h-.014zm72.923 144.074h22.53V302.03h-22.53v95.707c-5.067 7.09-9.878 10.634-14.434 10.634-3.03 0-4.8-1.77-5.31-5.31-.17-.51-.25-3.46-.25-8.86v-92.17H172.4v99c0 8.27.675 14.44 2.026 18.49 2.023 6.25 6.92 9.37 14.69 9.37 8.1 0 16.707-5.14 25.82-15.44v13.67-.01zm108.625-37.475v-49.882c0-12.326-.76-20.683-2.283-25.07-2.873-9.45-8.866-14.178-17.98-14.178-8.44 0-16.29 4.557-23.55 13.67V259.22h-22.53v167.865h22.53v-12.15c7.6 9.282 15.45 13.923 23.55 13.923 9.114 0 15.107-4.64 17.98-13.924 1.522-4.556 2.283-12.997 2.283-25.324v.015zm85.57-2.538v-3.29h-23.04c0 8.61-.17 13.75-.51 15.44-1.182 6.07-4.557 9.11-10.125 9.11-7.76 0-11.64-5.83-11.64-17.47v-22.03h45.315v-26.07c0-13.34-2.278-23.13-6.834-29.37-6.58-8.61-15.526-12.92-26.84-12.92-11.476 0-20.508 4.302-27.097 12.913-4.73 6.25-7.09 16.037-7.09 29.365v43.792c0 13.337 2.44 23.125 7.34 29.364 6.58 8.61 15.69 12.917 27.35 12.917 12.15 0 21.27-4.47 27.35-13.414 3.03-4.558 4.81-9.114 5.32-13.67.34-1.52.51-6.418.51-14.69h-.02zM255.19 155.92v-53.17c0-11.647-3.63-17.47-10.89-17.47-7.26 0-10.89 5.823-10.89 17.47v53.17c0 11.816 3.63 17.724 10.89 17.724 7.26 0 10.89-5.908 10.89-17.724zm182.043 190.14c0 39.503-2.193 69.043-6.58 88.62-2.362 9.963-7.26 18.32-14.688 25.068-7.43 6.75-16.037 10.63-25.82 11.64-31.062 3.547-77.904 5.32-140.528 5.32-62.624 0-109.467-1.77-140.53-5.317-9.79-1.01-18.44-4.89-25.946-11.64-7.5-6.75-12.35-15.1-14.56-25.07-4.38-18.9-6.58-48.44-6.58-88.61 0-39.5 2.2-69.04 6.58-88.62 2.37-9.96 7.26-18.32 14.69-25.07 7.43-6.74 16.12-10.71 26.08-11.89 30.89-3.37 77.65-5.06 140.278-5.06 62.623 0 109.465 1.69 140.527 5.065 9.793 1.18 18.44 5.147 25.947 11.896 7.506 6.75 12.36 15.11 14.56 25.07 4.387 18.91 6.58 48.45 6.58 88.62zM184.55 23h25.82l-30.642 101.025v68.613h-25.323v-68.613c-2.364-12.487-7.51-30.38-15.44-53.68C132.715 52.96 127.227 37.178 122.5 23h26.84l17.98 66.585L184.55 23zm93.68 84.308v44.31c0 13.668-2.363 23.627-7.09 29.875-6.248 8.61-15.195 12.917-26.84 12.917-11.306 0-20.168-4.306-26.586-12.917-4.726-6.418-7.09-16.377-7.09-29.875v-44.31c0-13.507 2.364-23.38 7.09-29.62 6.418-8.61 15.28-12.917 26.585-12.917 11.64 0 20.59 4.31 26.84 12.92 4.72 6.25 7.09 16.12 7.09 29.62zm84.82-41.02v126.35h-23.042v-13.924c-8.942 10.464-17.634 15.696-26.075 15.696-7.76 0-12.743-3.124-14.945-9.372-1.352-4.056-2.028-10.384-2.028-18.986V66.29H320v92.928c0 5.567.086 8.52.256 8.862.51 3.714 2.283 5.572 5.318 5.572 4.556 0 9.367-3.63 14.434-10.89V66.29h23.04z"/>
</svg>
